<mxfile host="app.diagrams.net" modified="2024-04-03T18:12:09.799Z" agent="Mozilla/5.0 (Windows NT 10.0; Win64; x64; rv:124.0) Gecko/20100101 Firefox/124.0" etag="_BpygEbmFZdjtZ6235-G" version="24.2.2" type="device">
  <diagram name="Page-1" id="XTUKEKARkDzXo-m7erJk">
    <mxGraphModel dx="1635" dy="684" grid="0" gridSize="10" guides="1" tooltips="1" connect="1" arrows="1" fold="1" page="0" pageScale="1" pageWidth="850" pageHeight="1100" math="0" shadow="0">
      <root>
        <mxCell id="0" />
        <mxCell id="1" parent="0" />
        <mxCell id="U6B1mCPbb9gVBkg4XDce-12" value="" style="rounded=0;whiteSpace=wrap;html=1;shadow=0;fillColor=default;" vertex="1" parent="1">
          <mxGeometry x="-152" y="103" width="656" height="160" as="geometry" />
        </mxCell>
        <mxCell id="U6B1mCPbb9gVBkg4XDce-14" value="" style="edgeStyle=none;curved=1;rounded=0;orthogonalLoop=1;jettySize=auto;html=1;fontSize=12;startSize=8;endSize=8;strokeWidth=2;" edge="1" parent="1" source="U6B1mCPbb9gVBkg4XDce-3" target="U6B1mCPbb9gVBkg4XDce-11">
          <mxGeometry relative="1" as="geometry" />
        </mxCell>
        <mxCell id="U6B1mCPbb9gVBkg4XDce-3" value="SOIL PH" style="ellipse;whiteSpace=wrap;html=1;fillColor=#FF9933;fontColor=default;strokeColor=#33001A;gradientColor=#FFFFFF;gradientDirection=south;fontStyle=1;fontFamily=Times New Roman;" vertex="1" parent="1">
          <mxGeometry x="-142" y="142" width="120" height="80" as="geometry" />
        </mxCell>
        <mxCell id="U6B1mCPbb9gVBkg4XDce-6" value=".CSV FILE (RAW DATA)" style="rounded=1;whiteSpace=wrap;html=1;fillColor=#007FFF;gradientColor=#FFFFFF;fontColor=default;fontStyle=1;fontFamily=Times New Roman;" vertex="1" parent="1">
          <mxGeometry x="372" y="152" width="120" height="60" as="geometry" />
        </mxCell>
        <mxCell id="U6B1mCPbb9gVBkg4XDce-15" style="edgeStyle=none;curved=1;rounded=0;orthogonalLoop=1;jettySize=auto;html=1;exitX=1;exitY=0.5;exitDx=0;exitDy=0;entryX=0;entryY=0.5;entryDx=0;entryDy=0;fontSize=12;startSize=8;endSize=8;strokeWidth=2;" edge="1" parent="1" source="U6B1mCPbb9gVBkg4XDce-11" target="U6B1mCPbb9gVBkg4XDce-6">
          <mxGeometry relative="1" as="geometry" />
        </mxCell>
        <mxCell id="U6B1mCPbb9gVBkg4XDce-11" value="&lt;br&gt;&lt;font&gt;MICROCLIMATE MONITORING SYSTEM&lt;/font&gt;&lt;div&gt;&lt;br&gt;&lt;/div&gt;" style="text;html=1;align=center;verticalAlign=middle;whiteSpace=wrap;rounded=0;fontSize=12;fillColor=#000000;fontFamily=Times New Roman;fontStyle=1;fontColor=#ffffff;" vertex="1" parent="1">
          <mxGeometry x="61.5" y="122" width="227" height="120" as="geometry" />
        </mxCell>
      </root>
    </mxGraphModel>
  </diagram>
</mxfile>
